<svg id="OBJECTS" xmlns="http://www.w3.org/2000/svg" viewBox="0 0 150 50.2"><defs><style>.cls-1,.cls-8{fill:none;}.cls-2,.cls-7{fill:#e3a645;}.cls-3{fill:#d0665b;}.cls-4{fill:#9acce5;}.cls-5,.cls-6{fill:#434043;}.cls-6{font-size:26.43px;font-family:Pristina-Regular, Pristina;}.cls-7{font-size:17.94px;font-family:MyriadPro-Regular, Myriad Pro;}.cls-8{stroke:#434043;stroke-linecap:round;stroke-linejoin:round;stroke-width:0.77px;}</style></defs><path class="cls-1" d="M176.5,233.49c.87,1.64,1.72,3.34,2.56,5,.45.91.91,1.82,1.36,2.71h1.24c-1.26-2.44-2.55-5.2-3.75-7.74Z" transform="translate(-163.27 -221.64)"/><path class="cls-1" d="M218.64,244.32a2.38,2.38,0,0,0,.05-.26c.05-.23.09-.48.14-.74h-3a4.08,4.08,0,0,1-.28.83c-1,1.6-24.89,5.18-28.67,4.22-1.13-.29-2.58-2.31-4.12-5.05H181.5c2.36,4.42,4.76,8,7.14,8,9.09,0,27-3.06,29.38-5.47A3.6,3.6,0,0,0,218.64,244.32Z" transform="translate(-163.27 -221.64)"/><path class="cls-1" d="M216.21,241.23h2.87c.11-1.24.2-2.58.28-3.81s.16-2.63.28-3.93H217C216.8,236.14,216.52,239.09,216.21,241.23Z" transform="translate(-163.27 -221.64)"/><path class="cls-2" d="M177.91,233.49c1.2,2.54,2.49,5.3,3.75,7.74h34.55c.31-2.14.59-5.09.81-7.74Z" transform="translate(-163.27 -221.64)"/><path class="cls-3" d="M217.41,226.2h-42c.47.92,1,2,1.52,3.11h40.26C217.28,228.06,217.36,227,217.41,226.2Z" transform="translate(-163.27 -221.64)"/><path class="cls-4" d="M186.9,249.18c3.78,1,27.7-2.61,28.67-4.21a4,4,0,0,0,.28-.84H182.78C184.32,246.87,185.77,248.89,186.9,249.18Z" transform="translate(-163.27 -221.64)"/><path class="cls-5" d="M225.15,222.67c-3.45,0-4.7,4-5.29,8.73h-44.5c-3.1-5.46-6.55-9.76-11.05-9.76a1,1,0,0,0,0,2.08c3.21,0,6.05,3.35,8.63,7.68h-.38a1,1,0,1,0,0,2.09h1.57c1.06,1.93,2.08,4,3.07,6l.88,1.78h-.37a1,1,0,0,0,0,2.09h1.43c3,5.72,5.8,10.1,9.5,10.1,6.43,0,19.83-1.74,26.84-4.08-5.15,4.43-15.25,6.42-23.17,8-7.66,1.5-11.36,2.32-11.74,4.5a2.11,2.11,0,0,0,.52,1.81c1.18,1.34,4.23,1.56,6,1.56v1.27a2.79,2.79,0,1,0,2.08,0v-1.3h23v1.3a2.79,2.79,0,0,0,1,5.38,2.79,2.79,0,0,0,1-5.38v-1.3h5.45a1,1,0,1,0,0-2.08H188.11c-2.77.14-5.27-.37-5.49-.87.47-1,6-2,10.09-2.85,11.08-2.17,26.2-5.15,28-14.8l0-.17a.3.3,0,0,0,0-.1h0c.06-.3.12-.62.17-1h.91a1,1,0,0,0,0-2.09h-.68c.1-1.09.18-2.32.27-3.68s.17-2.68.3-4.06h.73a1,1,0,0,0,0-2.09H222c.47-3.6,1.33-6.64,3.19-6.64a1,1,0,0,0,0-2.09ZM181.5,243.32h37.33c-.05.26-.09.51-.14.74a2.38,2.38,0,0,1-.05.26,3.6,3.6,0,0,1-.62,1.55c-2.42,2.41-20.29,5.47-29.38,5.47C186.26,251.34,183.86,247.74,181.5,243.32Zm37.86-5.9c-.08,1.23-.17,2.57-.28,3.81H180.42c-.45-.89-.91-1.8-1.36-2.71-.84-1.69-1.69-3.39-2.56-5h43.14C219.52,234.79,219.44,236.12,219.36,237.42Z" transform="translate(-163.27 -221.64)"/><text class="cls-6" transform="translate(76.74 23.54)">Smart</text><text class="cls-7" transform="translate(76.74 41.21)">Shopping</text><line class="cls-8" x1="68.69" y1="7.67" x2="68.69" y2="40.42"/></svg>