<?xml version="1.0" encoding="utf-8"?>
<!-- Generator: Adobe Illustrator 27.5.0, SVG Export Plug-In . SVG Version: 6.00 Build 0)  -->
<svg version="1.1" xmlns="http://www.w3.org/2000/svg" xmlns:xlink="http://www.w3.org/1999/xlink" x="0px" y="0px"
	 viewBox="0 0 750 500" style="enable-background:new 0 0 750 500;" xml:space="preserve">
<g id="BACKGROUND">
</g>
<g id="OBJECTS">
	<g>
		<g>
			<g>
				<path style="fill:#FACEBC;" d="M386.756,250.277c-4.927,0.919-10.167-0.86-14.685-3.231c-2.983-1.566-5.917-3.478-7.767-6.293
					c-0.832-1.266-1.393-2.751-1.593-4.258c-1.138-3.492-2.036-7.061-2.682-10.676c-0.271-1.516,1.563-2.558,2.666-1.483
					c0.301,0.294,0.574,0.618,0.803,0.936c2.035,2.839,3.755,5.903,5.119,9.118c3.889-3.102,7.991-6.301,12.738-7.588
					c0.692-0.188,1.257,0.595,0.877,1.202c-2.443,3.906-5.96,7.138-10.071,9.221c4.031-1.794,8.456-2.695,12.867-2.637
					c1.041,0.014,1.417,1.39,0.528,1.932c-3.017,1.842-6.66,2.692-10.161,3.47c3.528-0.377,7.091-0.433,10.629-0.167
					c0.848,0.064,1.741,0.162,2.367,0.808c0.32,0.33,0.49,0.796,0.387,1.245c-0.172,0.757-0.954,1.018-1.646,1.198
					c-3.78,0.984-7.619,1.74-11.49,2.265c4.043-0.233,8.147,0.948,11.472,3.254C387.799,249.067,387.574,250.124,386.756,250.277z"
					/>
				<path style="fill:#FACEBC;" d="M299.933,185.146c0,0,4.38,26.281,23.762,38.948c20.99,13.718,45.547,12.296,45.547,12.296
					l2.531,9.784c0,0-35.934,4.114-58.053-14.056c-22.081-18.139-26.804-41.679-26.804-41.679L299.933,185.146z"/>
				<path style="opacity:0.2;fill:#F39880;" d="M292.987,187.97l-6.072,2.469c0,0,4.723,23.54,26.804,41.679
					c7.043,5.786,15.486,9.31,23.724,11.429C314.095,234.295,298.153,212.383,292.987,187.97z"/>
				<g>
					<path style="fill:#E41718;" d="M282.204,171.274c1.263-4.002,5.402-5.316,7.972-4.67c5.322,1.339,9.412,5.682,11.87,10.589
						c2.104,4.201,3.33,8.776,5.023,13.159c0.448,1.16-0.236,2.446-1.449,2.718c-6.054,1.358-12.109,2.717-18.163,4.075
						c-1.161,0.26-2.49,0.489-3.446-0.218c-0.676-0.5-0.983-1.347-1.231-2.151C280.441,187.193,279.815,178.842,282.204,171.274z"/>
					<path style="opacity:0.78;fill:#A41916;" d="M282.204,171.274c0.513-1.626,1.504-2.801,2.669-3.588
						c-0.554,0.744-0.827,1.681-0.589,2.772c1.825,8.363,2.735,18.445,7.916,25.624c-1.581,0.355-3.163,0.71-4.744,1.064
						c-1.161,0.26-2.49,0.489-3.446-0.218c-0.676-0.5-0.983-1.347-1.231-2.151C280.441,187.193,279.815,178.842,282.204,171.274z"/>
				</g>
			</g>
			<g>
				<g>
					<path style="fill:#E41718;" d="M292.618,222.982c-0.078,0.363-15.172,5.16-23.875,5.457c-8.69,0.291-17.684-0.256-26.317-2.157
						c-3.829-0.84-7.582-1.942-11.216-3.359c0.163-1.811,0.315-3.59,0.45-5.319c0.049-0.576,0.092-1.152,0.136-1.715
						c0.009-0.082,0.018-0.159,0.021-0.234c0.041-0.487,0.075-0.975,0.11-1.449c0.169-2.221,0.305-4.353,0.409-6.363
						c0.025-0.424,0.044-0.841,0.062-1.252l0.009-0.227c0.015-0.354,0.031-0.708,0.047-1.049c0-0.132,0.007-0.265,0.014-0.392
						c0.027-0.796,0.048-1.573,0.058-2.324c0.006-0.29,0.011-0.581,0.011-0.865c0.006-0.562,0.006-1.11,0.001-1.64
						c-0.006-0.271-0.012-0.529-0.017-0.788s-0.011-0.51-0.022-0.756c-0.809-22.643,10.752-31.037,20.151-33.896
						c0.554-0.171,1.089-0.327,1.605-0.477c0.118-0.037,0.236-0.074,0.348-0.104c0.504-0.149,0.99-0.285,1.457-0.42
						c1.052-0.294,2.025-0.553,2.947-0.785c0.231-0.055,0.456-0.109,0.68-0.164c0.449-0.109,0.88-0.211,1.311-0.3
						c0.412-0.094,0.812-0.176,1.212-0.257c0.457-0.084,0.901-0.167,1.351-0.245c0.175-0.027,0.357-0.061,0.532-0.087
						c3.45-0.555,6.859-0.756,12.175-1.055c6.366-0.361,10.83,0.841,13.279,6.935C295.895,183.52,298.312,195.67,292.618,222.982z"
						/>
					<path style="opacity:0.78;fill:#A41916;" d="M264.092,161.816c-8.511,14.953-14.162,31.906-18.328,48.375
						c-1.346,5.309-2.469,10.684-3.338,16.091c-3.829-0.84-7.582-1.942-11.216-3.359c0.163-1.811,0.315-3.59,0.45-5.319
						c0.049-0.576,0.092-1.152,0.136-1.715c0.009-0.082,0.018-0.159,0.021-0.234c0.041-0.487,0.076-0.968,0.11-1.449
						c0.169-2.221,0.305-4.353,0.409-6.363c0.025-0.424,0.044-0.841,0.062-1.252l0.009-0.227c0.015-0.354,0.031-0.708,0.047-1.049
						c0-0.132,0.007-0.265,0.014-0.392c0.026-0.802,0.048-1.579,0.058-2.324c0.006-0.29,0.011-0.581,0.011-0.865
						c0.006-0.562,0.006-1.11,0.001-1.64c-0.006-0.265-0.012-0.529-0.017-0.788s-0.011-0.51-0.022-0.756
						c-0.809-22.643,10.752-31.037,20.151-33.896c0.554-0.171,1.089-0.327,1.605-0.477c0.118-0.037,0.236-0.074,0.348-0.104
						c0.504-0.149,0.99-0.285,1.457-0.42c1.052-0.294,2.025-0.553,2.947-0.785c0.231-0.055,0.456-0.109,0.68-0.164
						c0.449-0.109,0.88-0.211,1.311-0.3c0.412-0.094,0.812-0.176,1.212-0.257c0.457-0.084,0.901-0.167,1.351-0.245
						C263.735,161.876,263.916,161.843,264.092,161.816z"/>
				</g>
				<g>
					<g>
						<path style="fill:#F9B215;" d="M242.903,265.637c9.107,3.532,18.758,5.692,28.462,6.723
							c12.17,1.293,24.496,0.694,36.526-1.521c-0.519-12.733-9.011-25.269-12.393-37.482c-0.73-2.883-2.046-4.898-0.913-8.216
							c3.969-13.404,6.132-32.812,3.029-39.888c-12.025,2.592-26.214,7.318-39.674,5.989c-9.832-1.29-3.902,14.124-6.653,19.589
							c-4.226,14.053-11.666,13.021-19.416,4.131c-1.588,0.65-1.91,4.068-1.899,6.134c0.079,15.435-0.529,19.98-1.971,35.859
							c-0.032,0.349-0.062,0.688-0.093,1.029C232.236,261.512,237.942,263.713,242.903,265.637z"/>
						<path style="opacity:0.16;fill:#D8522C;" d="M248.97,243.707c0.96-8.079,2.763-16.018,4.518-23.952
							c1.056-4.774,2.186-9.534,3.139-14.329c0.537-2.698,1.016-5.408,1.386-8.134c0.258-1.906,0.628-3.977,0.655-5.998
							c-0.243-0.02-0.487-0.028-0.729-0.052c-9.832-1.29-3.902,14.124-6.653,19.589c-4.226,14.053-11.666,13.021-19.416,4.131
							c-1.588,0.65-1.91,4.068-1.899,6.134c0.079,15.435-0.529,19.98-1.971,35.859c-0.032,0.349-0.062,0.688-0.093,1.029
							c4.327,3.528,10.033,5.73,14.995,7.654c2.262,0.877,4.558,1.669,6.879,2.381C247.887,260.224,248.018,251.724,248.97,243.707z
							"/>
						<path style="fill:#791A15;" d="M298.125,193.409c0.322-0.045,0.561-0.345,0.524-0.661c-0.323-2.73-1.806-14.474-4.133-21.158
							c-2.43-6.979-8.376-10.57-9.329-11.109c-0.086-0.049-0.181-0.069-0.284-0.065l-7.686,0.352
							c-0.529,0.024-0.785,0.693-0.388,1.011c2.652,2.121,8.771,7.721,10.656,15.529c2.029,8.401,2.404,14.785,2.472,16.668
							c0.011,0.314,0.282,0.533,0.598,0.488L298.125,193.409z"/>
						<path style="fill:#791A15;" d="M264.566,198.768c0.325-0.047,0.592-0.368,0.585-0.706c-0.06-2.927-0.408-15.52-2.083-22.692
							c-1.749-7.489-7.324-11.357-8.221-11.938c-0.081-0.052-0.174-0.075-0.276-0.07l-8.725,3.083
							c-0.529,0.024-0.312,0.535,0.053,0.876c2.436,2.282,8.494,5.78,9.621,14.155c1.213,9.012,0.973,15.855,0.86,17.874
							c-0.019,0.337,0.23,0.572,0.549,0.526L264.566,198.768z"/>
					</g>
				</g>
			</g>
			<g>
				<g>
					<path style="fill:#FACEBC;" d="M264.259,158.667c0.026-1.231,1.131-2.217,2.545-2.244c3.478-0.068,6.829,1.029,10.517,1.405
						c0.241,0.025,0.507,0.062,0.669,0.223c0.179,0.179,0.166,0.44,0.141,0.672c-0.293,2.784-0.586,5.568-0.879,8.352
						c-0.071,1.491-0.187,1.77-0.319,2.795c-0.101,0.786-0.639,1.471-1.452,1.808c-2.974,1.231-9.002,0.702-11.439-2.444
						c-0.35-0.451-0.517-0.987-0.475-1.519C263.706,165.966,264.193,161.819,264.259,158.667z"/>
					<path style="opacity:0.2;fill:#F29881;" d="M266.804,156.423c0.799-0.016,1.591,0.035,2.382,0.12
						c-0.658,4.984-1.294,9.971-1.817,14.967c-1.338-0.499-2.527-1.244-3.327-2.276c-0.349-0.451-0.517-0.987-0.475-1.519
						c0.138-1.748,0.626-5.895,0.692-9.048C264.285,157.436,265.39,156.45,266.804,156.423z"/>
				</g>
				<g>
					<path style="fill:#FACEBC;" d="M300.999,107.237c-0.987-4.887-4.51-10.628-9.134-12.659
						c-12.208-5.825-29.568-5.119-38.134,3.18c-5.445,5.134-7.16,12.645-7.048,20.065c-0.365,9.496-0.406,18.846,3.546,27.495
						c4.253,10.4,15.396,16.585,27.771,15.868c12.375-0.717,16.799-6.885,20.595-12.928
						C305.05,137.152,303.444,116.39,300.999,107.237z"/>
					<path style="opacity:0.2;fill:#F39880;" d="M258.269,152.301c-2.246-3.628-4.071-7.669-5.451-11.705
						c-1.699-4.969-2.264-10.237-2.285-15.466c-0.047-11.798,3.759-23.096,13.491-30.477c1.505-1.142,3.092-2.129,4.734-2.994
						c-6.178,0.866-11.673,2.851-15.026,6.099c-5.445,5.134-7.16,12.645-7.048,20.065c-0.365,9.496-0.406,18.846,3.546,27.495
						c2.385,5.832,6.937,10.338,12.658,13.046c-0.259-0.296-0.513-0.596-0.762-0.895
						C260.751,155.822,259.399,154.126,258.269,152.301z"/>
				</g>
				<g>
					<path style="fill:#FACEBC;" d="M251.052,132.861c0,4.368-3.542,7.91-7.91,7.91c-4.369,0-7.91-3.541-7.91-7.91
						c0-4.369,3.541-7.91,7.91-7.91C247.51,124.951,251.052,128.493,251.052,132.861z"/>
					<path style="opacity:0.2;fill:#F39880;" d="M243.141,124.951c-2.682,0-5.051,1.336-6.481,3.378
						c1.026,0.198,2.05,0.556,2.357,0.731c2.302,1.313,3.398,3.783,4.37,6.122c0.712,1.715,1.404,3.489,1.833,5.311
						c3.36-0.913,5.831-3.983,5.831-7.632C251.051,128.493,247.51,124.951,243.141,124.951z"/>
					<g>
						<path style="fill:none;stroke:#E66464;stroke-width:2;stroke-linecap:round;stroke-linejoin:round;stroke-miterlimit:10;" d="
							M239.9,128.537c2.529,0.284,4.829,2.072,5.729,4.452"/>
						<path style="fill:none;stroke:#E66464;stroke-width:2;stroke-linecap:round;stroke-linejoin:round;stroke-miterlimit:10;" d="
							M242.347,129.814c-0.724,1.162-1.166,2.521-1.117,3.889c0.049,1.368,0.62,2.736,1.655,3.632"/>
					</g>
				</g>
				<g>
					<path style="fill:#FFFFFF;" d="M272.866,140.408c0.917-1.698,3.698,0.144,8.531-0.111c4.833-0.254,7.209-1.29,8.296-0.248
						c1.087,1.042-2.486,6.96-8.115,6.996C275.948,147.081,271.949,142.106,272.866,140.408z"/>
					<path style="fill:none;stroke:#E66464;stroke-width:2;stroke-linecap:round;stroke-linejoin:round;stroke-miterlimit:10;" d="
						M280.821,127.261c0.983,6.573,4.465,8.926,3.952,9.219c-0.246,0.14-0.584,0.178-0.905,0.205
						c-1.177,0.099-2.368,0.127-3.553,0.083"/>
					<path style="fill:#020203;" d="M273.886,130.487c0,1.965-1.593,3.557-3.557,3.557c-1.965,0-3.557-1.593-3.557-3.557
						c0-1.965,1.593-3.557,3.557-3.557C272.293,126.93,273.886,128.522,273.886,130.487z"/>
					<circle style="fill:#020203;" cx="289.74" cy="130.487" r="3.557"/>
					<path style="fill:#76160D;" d="M263.77,116.465c-0.455,0.402-0.866,0.877-1.074,1.446c-0.208,0.569-0.187,1.246,0.167,1.739
						c0.395,0.55,1.125,0.776,1.804,0.757c0.679-0.019,1.334-0.242,1.989-0.422c1.346-0.37,2.741-0.566,4.138-0.58
						c0.936-0.01,1.905,0.057,2.777-0.282c0.872-0.338,1.617-1.241,1.401-2.147c-0.213-0.896-1.202-1.355-2.091-1.609
						C269.806,114.488,266.334,114.197,263.77,116.465z"/>
					<path style="fill:#76160D;" d="M295.508,116.643c0.44,0.403,0.838,0.877,1.039,1.446c0.202,0.569,0.181,1.246-0.161,1.739
						c-0.382,0.55-1.088,0.776-1.746,0.757c-0.658-0.019-1.29-0.242-1.924-0.422c-1.303-0.37-2.652-0.566-4.004-0.58
						c-0.906-0.009-1.843,0.057-2.687-0.281c-0.844-0.338-1.564-1.241-1.355-2.147c0.207-0.896,1.163-1.355,2.024-1.609
						C289.668,114.667,293.027,114.375,295.508,116.643z"/>
				</g>
				<path style="fill:#76160D;" d="M257.129,92.144c5.47-3.089,11.559-5.392,17.956-6.212c6.396-0.82,13.113-0.099,18.872,2.533
					c7.764,3.548,13.141,10.142,18.192,16.518c0.53,0.67,1.085,1.51,0.714,2.261c-3.951-0.36-7.845-1.212-11.538-2.525
					c3.731,2.022,6.744,4.933,9.705,7.805c2.047,1.986,4.252,4.517,3.399,7.114c-4.074-0.011-7.565-2.422-11.111-4.226
					c-3.205-1.631-6.661-2.82-10.118-3.961c-6.438-2.125-13.017-4.121-19.852-4.632c-6.835-0.512-14.033,0.589-19.601,4.187
					c-0.588-0.54-1.176-1.081-1.764-1.621c-2.316,4.007,3.744,9.008,1.478,13.039c-0.424,0.755-2.648,7.815-3.387,8.338
					c-2.057,1.457-3.569-4.188-5.717-5.536c-2.132-1.337-2.363-4.044-2.389-6.38c-0.023-2.123-0.047-4.246-0.07-6.369
					c-0.014-1.311-0.027-2.634,0.263-3.918c0.268-1.184,0.788-2.308,1.304-3.424C246.002,99.662,251.589,95.273,257.129,92.144z"/>
			</g>
		</g>
		<g>
			<rect x="160.595" y="262.079" style="fill:#3D284D;" width="359.638" height="160.528"/>
			<path style="fill:#2B6C82;" d="M519.281,262.997H162.203c-2.931,0-5.306-2.376-5.306-5.306v-1.488
				c0-2.931,2.376-5.306,5.306-5.306h357.078c2.931,0,5.306,2.376,5.306,5.306v1.488
				C524.587,260.622,522.212,262.997,519.281,262.997z"/>
		</g>
		<g>
			<g>
				<g>
					<path style="fill:#ED9050;" d="M391.206,190.283c-10.106,23.126-14.697,43.447-10.255,45.388
						c4.442,1.941,16.236-15.232,26.342-38.357c10.106-23.126,14.697-43.447,10.255-45.388
						C413.106,149.984,401.312,167.158,391.206,190.283z"/>
					<path style="opacity:0.5;fill:#ED9050;" d="M417.548,151.926c-0.148-0.065-0.305-0.105-0.469-0.128
						c-0.545,6.469-2.6,12.789-4.929,18.898c-6.433,16.872-13.12,33.626-21.789,49.499c-2.777,5.085-5.537,10.49-8.697,15.612
						c4.891,0.088,16.02-16.506,25.629-38.493C417.4,174.188,421.991,153.867,417.548,151.926z"/>
					<path style="opacity:0.37;fill:#ED9050;" d="M412.507,161.466c0.23-0.082,0.863-0.151,1.382-0.241
						c-1.261,2.394-3.692,4.724-5.643,6.65c-2.641,2.606-5.443,5.055-8.335,7.349c-0.782,0.62-1.642,1.349-2.511,2.002
						c1.809-3.54,3.608-6.785,5.336-9.646c1.986-1.863,4.209-3.449,6.592-4.686C410.362,162.359,411.419,161.855,412.507,161.466z"
						/>
					<path style="opacity:0.37;fill:#ED9050;" d="M406.211,182.197c-0.166,0.308-0.527,0.811-0.858,1.249
						c-2.06,2.73-4.615,5.055-7.121,7.293c-3.503,3.129-7.183,6.393-11.035,9.153c1.027-2.635,2.151-5.358,3.363-8.131
						c0.024-0.055,0.048-0.107,0.072-0.162c4.245-3.977,8.415-8.303,13.994-9.665c0.341-0.083,1.204-0.045,1.748-0.063
						C406.324,181.979,406.269,182.089,406.211,182.197z"/>
					<path style="opacity:0.37;fill:#ED9050;" d="M397.401,202.623c-0.685,1.499-1.821,2.912-2.715,4.062
						c-1.36,1.75-2.796,3.455-4.295,5.082c-2.895,3.142-6.143,6.088-9.766,8.341c0.778-3.226,1.847-6.877,3.176-10.817
						C388.032,206.498,392.531,203.669,397.401,202.623z"/>
				</g>
				<g>
					<path style="fill:#ED9050;" d="M346.46,203.479c16.004,19.514,32.016,32.842,35.765,29.768
						c3.749-3.074-6.186-21.386-22.189-40.9c-16.004-19.514-32.016-32.842-35.765-29.768
						C320.522,165.652,330.457,183.964,346.46,203.479z"/>
					<path style="opacity:0.5;fill:#ED9050;" d="M324.271,162.578c-0.125,0.102-0.232,0.224-0.327,0.36
						c5.515,3.426,10.209,8.13,14.591,12.981c12.104,13.4,23.986,26.972,34.183,41.91c3.267,4.785,6.826,9.7,9.952,14.844
						c2.302-4.316-7.418-21.773-22.635-40.327C344.032,172.831,328.02,159.504,324.271,162.578z"/>
					<path style="opacity:0.37;fill:#ED9050;" d="M330.477,171.405c0.032-0.242,0.257-0.837,0.414-1.341
						c1.559,2.211,2.529,5.436,3.357,8.049c1.12,3.537,2.028,7.146,2.757,10.765c0.197,0.979,0.455,2.076,0.642,3.146
						c-2.331-3.221-4.403-6.298-6.166-9.138c-0.756-2.616-1.159-5.317-1.176-8.002C330.297,173.722,330.328,172.552,330.477,171.405
						z"/>
					<path style="opacity:0.37;fill:#ED9050;" d="M346.079,186.438c0.199,0.288,0.482,0.838,0.722,1.332
						c1.495,3.076,2.405,6.408,3.259,9.658c1.194,4.543,2.429,9.304,3.136,13.99c-1.88-2.113-3.794-4.352-5.714-6.692
						c-0.038-0.046-0.073-0.091-0.111-0.138c-1.612-5.589-3.57-11.27-2.247-16.858c0.081-0.341,0.507-1.094,0.739-1.585
						C345.936,186.238,346.01,186.337,346.079,186.438z"/>
					<path style="opacity:0.37;fill:#ED9050;" d="M360.267,203.57c1.024,1.291,1.766,2.946,2.384,4.265
						c0.94,2.007,1.806,4.061,2.574,6.136c1.482,4.007,2.63,8.239,2.989,12.491c-2.52-2.16-5.285-4.771-8.191-7.747
						C359.459,213.677,358.985,208.384,360.267,203.57z"/>
				</g>
				<g>
					<path style="fill:#ED9050;" d="M379.451,188.379c5.786,24.565,6.651,45.38,1.932,46.492
						c-4.719,1.111-13.235-17.902-19.021-42.467c-5.786-24.565-6.651-45.38-1.932-46.492
						C365.149,144.801,373.665,163.814,379.451,188.379z"/>
					<path style="opacity:0.5;fill:#ED9050;" d="M360.43,145.912c0.157-0.037,0.319-0.048,0.485-0.041
						c-0.627,6.462,0.259,13.048,1.453,19.476c3.296,17.754,6.864,35.436,12.539,52.609c1.818,5.501,3.561,11.314,5.75,16.921
						c-4.827-0.793-12.794-19.116-18.295-42.473C356.576,167.839,355.711,147.023,360.43,145.912z"/>
					<path style="opacity:0.37;fill:#ED9050;" d="M363.675,156.203c-0.212-0.122-0.821-0.304-1.316-0.485
						c0.81,2.582,2.783,5.311,4.356,7.555c2.13,3.038,4.446,5.951,6.879,8.728c0.658,0.751,1.373,1.622,2.11,2.421
						c-1.143-3.808-2.33-7.323-3.516-10.448c-1.619-2.189-3.521-4.15-5.643-5.794C365.624,157.467,364.676,156.781,363.675,156.203z
						"/>
					<path style="opacity:0.37;fill:#ED9050;" d="M366.143,177.728c0.108,0.333,0.373,0.892,0.62,1.383
						c1.536,3.056,3.631,5.802,5.694,8.454c2.884,3.707,5.917,7.58,9.21,10.987c-0.537-2.777-1.153-5.657-1.847-8.603
						c-0.014-0.058-0.028-0.114-0.042-0.172c-3.461-4.675-6.786-9.68-12.029-12.022c-0.32-0.143-1.177-0.261-1.708-0.376
						C366.071,177.493,366.106,177.612,366.143,177.728z"/>
					<path style="opacity:0.37;fill:#ED9050;" d="M371.139,199.404c0.404,1.597,1.268,3.192,1.941,4.484
						c1.024,1.966,2.13,3.902,3.312,5.771c2.283,3.611,4.949,7.093,8.108,9.96c-0.185-3.314-0.581-7.097-1.181-11.212
						C379.66,204.9,375.742,201.308,371.139,199.404z"/>
				</g>
			</g>
			<polygon style="fill:#4BB169;" points="404.962,251.185 341.584,251.185 329.495,203.368 416.685,203.368 			"/>
			<path style="fill:#78BC67;" d="M342.012,230.046c-1.656-9.079-5.194-17.723-7.23-26.679h-5.287l12.089,47.818h5.492
				C345.248,244.177,343.314,237.188,342.012,230.046z"/>
			<path style="opacity:0.5;fill:#45B597;" d="M406.533,203.368c-1.141,3.656-2.654,7.215-4.057,10.786
				c-2.617,6.66-7.029,12.863-8.77,19.813c-1.421,5.672-1.294,11.006-6.777,14.323c-1.757,1.063-3.587,2.015-5.457,2.896h23.49
				l11.723-47.818H406.533z"/>
			<path style="fill:#791A15;" d="M400.795,171.05h-55.411c-1.344,0-2.434,1.09-2.434,2.434v40.679c0,1.345,1.09,2.435,2.434,2.435
				h0.232c1.344,0,2.434-1.09,2.434-2.435v-35.891c0-1.344,1.09-2.434,2.434-2.434h45.442c1.344,0,2.434,1.09,2.434,2.434v35.891
				c0,1.345,1.09,2.435,2.434,2.435l0,0c1.345,0,2.434-1.09,2.434-2.435v-40.679C403.23,172.139,402.14,171.05,400.795,171.05z"/>
		</g>
		<g>
			<path style="fill:#FACEBC;" d="M319.088,281.455c-4.852-0.786-9.1-4.166-12.484-7.853c-2.234-2.435-4.308-5.173-5.083-8.386
				c-0.348-1.444-0.373-3.002-0.059-4.459c0.108-3.6,0.462-7.193,1.065-10.745c0.253-1.489,2.292-1.843,2.953-0.485
				c0.181,0.371,0.325,0.76,0.43,1.131c0.937,3.295,1.509,6.694,1.701,10.115c4.619-1.574,9.467-3.167,14.275-2.781
				c0.701,0.056,0.963,0.966,0.411,1.401c-3.551,2.795-7.87,4.612-12.355,5.172c4.317-0.319,8.699,0.317,12.753,1.833
				c0.957,0.358,0.847,1.753-0.154,1.959c-3.395,0.7-7.041,0.276-10.53-0.167c3.382,0.822,6.689,1.952,9.868,3.371
				c0.761,0.34,1.554,0.727,1.917,1.53c0.186,0.411,0.188,0.898-0.055,1.278c-0.41,0.642-1.219,0.624-1.916,0.56
				c-3.816-0.346-7.611-0.921-11.358-1.72c3.81,1.126,7.207,3.577,9.511,6.809C320.452,280.684,319.894,281.586,319.088,281.455z"/>
			<g>
				<path style="fill:#FACEBC;" d="M252.604,194.548c-0.355,25.277,2.101,39.391,8.825,48.463
					c9.598,12.947,35.496,16.168,45.051,16.634c0.802,2.171,1.939,11.484,2.491,14.77c-19.779-0.198-54.228-9.333-63.46-24.348
					c-9.475-15.41-11.994-44.973-8.936-57.093C236.867,192.76,249.382,193.978,252.604,194.548z"/>
				<path style="opacity:0.2;fill:#F39880;" d="M247.868,244.662c-4.649-8.401-7.875-21.505-8.404-31.127
					c-0.279-5.068,0.415-9.943,1.487-14.751c0.304-1.839,0.703-3.658,1.225-5.442c-3.005-0.28-5.472-0.461-5.6-0.367
					c-3.059,12.12-0.539,41.683,8.936,57.093c5.001,8.134,17.406,14.539,30.868,18.736
					C264.338,262.647,254.381,256.431,247.868,244.662z"/>
			</g>
			<g>
				<path style="fill:#E41718;" d="M239.999,173.799c2.542-3.339,6.881-3.176,9.081-1.699c4.556,3.059,6.936,8.53,7.59,13.979
					c0.56,4.664,0.166,9.385,0.277,14.082c0.029,1.243-1.049,2.222-2.283,2.068c-6.157-0.769-12.314-1.538-18.471-2.307
					c-1.18-0.147-2.508-0.382-3.169-1.371c-0.467-0.699-0.47-1.6-0.431-2.44C232.958,188.184,235.193,180.113,239.999,173.799z"/>
				<path style="opacity:0.78;fill:#A41916;" d="M241.893,172.092c-0.689,0.419-1.336,0.974-1.894,1.706
					c-4.807,6.315-7.041,14.385-7.406,22.313c-0.039,0.84-0.036,1.741,0.431,2.44c0.661,0.989,1.989,1.223,3.169,1.371
					c1.495,0.187,2.99,0.374,4.485,0.56C238.588,192.292,238.062,180.388,241.893,172.092z"/>
			</g>
		</g>
		<ellipse style="opacity:0.11;fill:#3B5B96;" cx="377.256" cy="435.092" rx="333.992" ry="21.927"/>
		<polygon style="fill:#915E39;" points="172.937,250.756 190.147,271.34 234.433,260.161 218.457,243.757 		"/>
		<g>
			<g>
				<g>
					<path style="fill:#F5A989;" d="M140,202.657c5.896,24.582,11.76,37.654,20.516,44.784c12.497,10.177,38.389,6.905,47.763,4.997
						c1.313,1.906,4.714,10.65,6.061,13.698c-19.215,4.69-54.854,4.343-67.507-7.927c-12.986-12.594-22.725-40.62-22.754-53.12
						C124.308,204.809,136.737,202.9,140,202.657z"/>
					<path style="opacity:0.25;fill:#F5A989;" d="M147.782,252.389c-6.579-6.993-12.94-18.895-15.829-28.089
						c-1.521-4.842-2.053-9.737-2.201-14.662c-0.159-1.857-0.222-3.718-0.157-5.576c-2.981,0.47-5.417,0.904-5.517,1.026
						c0.028,12.5,9.768,40.526,22.754,53.12c6.855,6.648,20.457,9.792,34.538,10.535C168.183,265.751,157,262.186,147.782,252.389z"
						/>
				</g>
				<g>
					<path style="fill:#E41718;" d="M127.784,178.956c-2.162-0.377-10.883,7.577-6.509,26.003
						c4.374,18.426,11.62,39.323,19.345,49.528c0,0,6.476,0.272,10.747-4.339c4.271-4.612,6.595-6.805,6.595-6.805
						s-11.593-16.587-14.051-27.492C141.452,204.944,144.21,181.818,127.784,178.956z"/>
					<path style="opacity:0.78;fill:#A41916;" d="M128.49,221.278c-1.182-3.081-2.307-6.203-3.173-9.39
						c-1.128-4.149-1.874-8.392-2.349-12.664c-0.546-4.915-0.718-9.871-0.648-14.824c-2.048,4.218-3.321,10.967-1.044,20.559
						c4.374,18.426,11.62,39.323,19.345,49.528c0,0,2.6,0.105,5.591-0.987C138.654,243.813,132.874,232.712,128.49,221.278z"/>
				</g>
				<g>
					<path style="fill:#45B597;" d="M230.382,261.939c-0.55-0.689-1.414-0.868-2.235-1.01c-3.43-0.591-6.914-0.869-10.395-0.831
						c3.491-0.432,7.128-0.921,10.246-2.438c0.919-0.447,0.681-1.826-0.334-1.936c-4.302-0.469-8.706-0.003-12.811,1.372
						c4.208-1.65,7.945-4.477,10.696-8.062c0.428-0.558-0.051-1.375-0.744-1.256c-4.755,0.813-9.059,3.553-13.147,6.219
						c-1.031-3.267-2.424-6.419-4.146-9.382c-0.193-0.333-0.429-0.675-0.696-0.989c-0.976-1.153-2.865-0.307-2.742,1.199
						c0.194,2.381,0.509,4.752,0.921,7.105c-0.189,0.47-7.184,0.54-8.789,1.816c-1.606,1.275-1.278,3.45-0.927,6.219
						c0.377,2.979,1.371,7.774,4.613,8.926c2.473,0.879,5.244-0.022,7.768-0.127c3.564-0.148,7.302-0.171,10.798,0.627
						c3.138,0.716,6.134,2.108,9.426,1.815c0.814-0.072,1.132-1.084,0.508-1.611c-3.031-2.563-6.928-4.1-10.898-4.25
						c3.828-0.15,7.648-0.53,11.431-1.137c0.692-0.111,1.48-0.293,1.719-1.016C230.785,262.763,230.664,262.292,230.382,261.939z"/>
					<path style="opacity:0.5;fill:#45B597;" d="M212.05,265.793c-3.162-0.729-6.324-1.042-9.567-1.015
						c-2.002,0.017-4.019,0.139-6.032,0.176c0.7,1.781,1.771,3.343,3.441,3.936c2.473,0.879,5.244-0.022,7.768-0.127
						c3.564-0.148,7.302-0.171,10.798,0.627c3.1,0.708,6.063,2.069,9.309,1.819C222.619,269.146,217.466,267.041,212.05,265.793z"/>
				</g>
			</g>
			<g>
				<g>
					<g>
						<path style="fill:#FFFAC9;" d="M106.623,430.02c0,0,12.529,1.649,22.818,1.122c10.289-0.527,23.478-2.504,23.478-2.504l0,0
							c-0.205-9.688-8.184-12.503-18.115-12.207l-19.28-4.23c-5.122,0.153-9.188,4.327-9.082,9.324L106.623,430.02z"/>
						<path style="fill:#AE2C17;" d="M136.25,424.013c0.111-2.415,0.537-5.329,1.773-7.554c-1.045-0.049-2.117-0.061-3.219-0.029
							l-19.28-4.23c-5.122,0.153-9.188,4.327-9.082,9.324l0.18,8.495c0,0,12.529,1.649,22.818,1.122
							c2.284-0.117,4.71-0.305,7.103-0.528C136.257,428.398,136.151,426.176,136.25,424.013z"/>
						<path style="fill:#E41718;" d="M105.052,430.355c15.831,2.628,32.484,2.525,49.073-0.534c-0.12-0.777-0.242-1.553-0.366-2.328
							c-16.274,3.007-32.605,3.113-48.123,0.541C105.443,428.807,105.248,429.581,105.052,430.355z"/>
					</g>
					<path style="fill:#020203;" d="M107.245,412.919c4.201-23.238,4.752-54.643,2.501-81.789
						c-1.894-39.638-13.764-67.052-5.757-84.072c1.694-0.817,22.581-2.658,23.061-4.26c9.596,30.13,12.622,68.686,13.467,88.977
						c1.306,31.373-1.229,49.985-7.728,83.093C132.67,423.674,103.341,421.021,107.245,412.919z"/>
				</g>
				<g>
					<g>
						<path style="fill:#FFFAC9;" d="M62.847,431.315c0,0,12.977,4.197,25.513,5.298c12.536,1.101,23.752,0.644,23.752,0.644l0,0
							c0.35-11.016-8.018-15.387-18.654-16.516l-20.368-7.643c-5.486-0.583-10.079,3.551-10.259,9.233L62.847,431.315z"/>
						<path style="fill:#AE2C17;" d="M96.181,426.234c0.226-1.682,0.585-3.36,1.186-4.902c-1.259-0.253-2.566-0.449-3.91-0.592
							l-20.368-7.642c-5.486-0.583-10.079,3.551-10.259,9.233l0.017,8.985c0,0,12.977,4.197,25.513,5.298
							c2.757,0.242,5.451,0.409,7.975,0.522C95.79,433.454,95.708,429.757,96.181,426.234z"/>
						<path style="fill:#E41718;" d="M62.01,432.31c16.499,5.551,33.892,7.87,51.258,6.553c-0.115-0.971-0.232-1.941-0.351-2.911
							c-17.037,1.3-34.093-0.969-50.266-6.405C62.44,430.469,62.226,431.39,62.01,432.31z"/>
					</g>
					<path style="fill:#020203;" d="M66.261,415.728c6.521-22.404,10.295-53.201,10.877-80.095
						c2.218-39.131-6.628-67.262,2.995-83.173c1.749-0.631,22.469-0.329,23.107-1.854c6.331,30.57,5.337,68.751,4.079,88.771
						c-1.945,30.952-6.352,48.98-16.148,80.848C90.146,428.862,61.59,423.293,66.261,415.728z"/>
				</g>
			</g>
			<g>
				<g>
					<path style="fill:#E41718;" d="M130.93,182.216c-11.659-4.269-21.823-4.005-41.374-2.234
						c-13.957,1.265-16.373,17.747-16.726,28.938c-0.5,15.848,1.309,31.734,4.221,47.295c0.946,5.055,2.186,10.299,7.493,12.193
						c5.059,1.805,10.803,0.575,16.034,1.412c19.313,3.092,31.921-3.109,32.05-6.796c0.839-24.004,4.189-57.748,5.308-71.828
						C137.689,187.579,134.626,184.141,130.93,182.216z"/>
				</g>
				<g>
					<path style="fill:#F9B215;" d="M95.102,214.927c2.071-2.314,41.888-8.528,44.458-6.425c2.57,2.103,2.336,35.511,1.402,50.463
						c-0.935,14.952,7.71,76.396,6.775,89.245c-0.934,12.849-58.173,14.018-59.107,7.009c-0.935-7.009,1.168-74.293-0.935-78.265
						c-2.103-3.972-12.382-7.009-12.616-10.28c-0.234-3.271-3.271-21.494-1.168-22.895c2.103-1.402,14.485,0,16.821-8.411
						C93.068,226.958,92.697,217.615,95.102,214.927z"/>
					<g>
						<g>
							<path style="fill:#F9B215;" d="M94.818,221.97c0.326-2.333,0.499-4.726,0.284-7.042
								C94.678,216.939,94.731,219.453,94.818,221.97z"/>
							<path style="fill:#791A15;" d="M141.004,213.043c0.342-0.049,0.597-0.379,0.557-0.726c-0.344-3-1.92-15.904-4.395-23.248
								c-2.584-7.669-8.907-11.614-9.92-12.206c-0.091-0.053-0.193-0.076-0.302-0.071l-8.172,0.386
								c-0.562,0.027-0.834,0.762-0.412,1.111c2.82,2.331,9.326,8.484,11.331,17.063c2.158,9.231,2.556,16.245,2.629,18.314
								c0.012,0.345,0.3,0.585,0.636,0.537L141.004,213.043z"/>
							<path style="fill:#791A15;" d="M107.313,218.545c0.366-0.055,0.667-0.428,0.659-0.822
								c-0.067-3.406-0.459-18.059-2.345-26.403c-1.969-8.714-8.247-13.215-9.257-13.89c-0.091-0.061-0.196-0.087-0.311-0.082
								l-9.824,3.588c-0.595,0.028-0.351,0.622,0.06,1.02c2.743,2.655,9.564,6.725,10.834,16.47
								c1.366,10.485,1.096,18.448,0.969,20.797c-0.021,0.392,0.259,0.665,0.618,0.612L107.313,218.545z"/>
						</g>
					</g>
				</g>
			</g>
			<g>
				<g>
					<g>
						<path style="fill:#F5A989;" d="M108.971,186.164c-3.55-0.093-8.461-2.383-8.48-6.807l2.322-12.809l16.125,2.923l-2.385,13.157
							C116.162,185.44,112.521,186.257,108.971,186.164z"/>
						<path style="opacity:0.54;fill:#F5A989;" d="M103.417,174.538c1.4,0.981,2.98,1.816,4.695,2.327
							c2.18,0.649,4.681,0.856,6.838,0.373c0.772-0.173,1.423-0.413,2.002-0.85c0.315-0.238,0.606-0.499,0.874-0.776l0.779-4.299
							c-0.055-0.089-0.026-0.186,0.046-0.253l0.288-1.588l-16.125-2.923l-1.18,6.51
							C102.163,173.599,102.775,174.088,103.417,174.538z"/>
					</g>
					<g>
						<path style="fill:#F5A989;" d="M141.566,114.498c-1.438-5.015-5.591-10.709-10.583-12.441
							c-13.22-5.057-31.268-2.872-39.511,6.499c-5.251,5.809-6.413,13.788-5.677,21.517c0.412,9.936,1.149,19.692,5.993,28.383
							c5.304,10.493,17.443,16.014,30.292,14.234c12.848-1.781,16.948-8.584,20.403-15.204
							C148.287,145.363,144.879,123.841,141.566,114.498z"/>
						<path style="opacity:0.25;fill:#F5A989;" d="M100.756,165.07c-2.646-3.596-4.887-7.659-6.663-11.754
							c-2.187-5.042-3.216-10.489-3.674-15.942c-1.034-12.301,1.993-24.405,11.528-32.915c1.474-1.316,3.047-2.478,4.687-3.519
							c-6.372,1.419-11.938,3.948-15.164,7.615c-5.251,5.809-6.413,13.788-5.677,21.517c0.412,9.936,1.149,19.692,5.993,28.383
							c2.975,5.884,8.099,10.204,14.292,12.551c-0.295-0.287-0.585-0.579-0.87-0.87C103.639,168.535,102.087,166.879,100.756,165.07
							z"/>
					</g>
					<g>
						<path style="fill:#F5A989;" d="M91.606,145.395c0.365,4.557-3.034,8.546-7.591,8.911c-4.557,0.365-8.546-3.034-8.911-7.59
							c-0.365-4.557,3.034-8.547,7.59-8.911C87.251,137.439,91.241,140.838,91.606,145.395z"/>
						<path style="opacity:0.25;fill:#F5A989;" d="M82.695,137.804c-2.798,0.224-5.157,1.815-6.479,4.064
							c1.087,0.121,2.185,0.409,2.52,0.566c2.511,1.177,3.86,3.662,5.068,6.02c0.886,1.73,1.757,3.522,2.356,5.387
							c3.428-1.233,5.75-4.641,5.445-8.447C91.241,140.838,87.251,137.439,82.695,137.804z"/>
						<g>
							
								<path style="fill:none;stroke:#E76464;stroke-width:1.57;stroke-linecap:round;stroke-linejoin:round;stroke-miterlimit:10;" d="
								M79.613,141.814c2.661,0.085,5.211,1.758,6.347,4.166"/>
							
								<path style="fill:none;stroke:#E76464;stroke-width:1.57;stroke-linecap:round;stroke-linejoin:round;stroke-miterlimit:10;" d="
								M82.272,142.942c-0.658,1.272-1.006,2.727-0.84,4.15c0.166,1.423,0.876,2.803,2.03,3.65"/>
						</g>
					</g>
					<path style="fill:#FFE056;" d="M86.886,140.101c0.611,1.758,2.157,3.744,3.909,3.114c1.246-0.448,1.683-1.964,1.876-3.274
						c1.046-7.092,0.064-14.308-0.917-21.409c4.554,0.697,9.157,1.323,13.755,1.034c2.601-0.163,5.174-0.618,7.741-1.072
						c4.066-0.719,8.133-1.438,12.199-2.157c1.9-0.336,3.913-0.726,5.326-2.039c0.187-0.174,0.373-0.393,0.361-0.648
						c-0.013-0.261-0.226-0.461-0.425-0.631c-1.06-0.91-2.121-1.819-3.181-2.729c4.303,1.45,8.607,2.901,12.91,4.351
						c0.673,0.227,1.421,0.452,2.073,0.171c0.902-0.388,1.171-1.526,1.225-2.506c0.214-3.848-1.134-7.76-3.673-10.659
						c-2.539-2.899-6.238-4.753-10.08-5.049c1.179-0.973,2.003-2.368,2.285-3.871c-7.524-1.527-15.322-0.618-22.879,0.733
						c-5.029,0.9-10.117,2.029-14.539,4.587c-4.422,2.558-8.142,6.775-8.946,11.82c-2.214,0.021-4.764,0.204-6.072,1.99
						c-0.597,0.814-0.82,1.834-1.03,2.821c-0.795,3.747-1.594,7.571-1.184,11.379c0.318,2.96,1.502,6.266,3.816,8.266
						C83.95,136.497,85.642,136.524,86.886,140.101z"/>
					<path style="opacity:0.3;fill:#FFE056;" d="M90.267,139.221c-3.968-9.626-4.542-19.545-4.306-29.624
						c-0.017,0.091-0.039,0.18-0.053,0.271c-2.214,0.021-4.764,0.204-6.072,1.99c-0.597,0.814-0.82,1.834-1.03,2.821
						c-0.795,3.747-1.594,7.571-1.184,11.379c0.318,2.96,1.502,6.266,3.816,8.266c2.512,2.171,4.205,2.199,5.448,5.775
						c0.611,1.758,2.157,3.743,3.909,3.114c0.215-0.077,0.398-0.195,0.567-0.329C90.93,141.645,90.566,140.41,90.267,139.221z"/>
				</g>
				<g>
					<g>
						<g>
							<path style="fill:#AC4141;" d="M113.766,152.553c0.829-1.664,3.547-0.38,8.208-0.379c5.096,0.001,6.898-1.472,7.977-0.504
								c1.079,0.969-2.171,6.779-7.588,6.993C116.946,158.878,112.938,154.217,113.766,152.553z"/>
						</g>
						<g>
							<path style="fill:#E76464;" d="M123.236,154.21c-1.638-1.045-3.478-1.863-5.392-2.321c-2.177-0.251-3.536-0.426-4.078,0.664
								c-0.829,1.664,3.18,6.325,8.597,6.111c1.673-0.066,3.138-0.668,4.334-1.494C125.702,156.018,124.515,155.026,123.236,154.21z
								"/>
						</g>
					</g>
					<path style="fill:#FFE056;" d="M104.365,125.136c-0.468,0.448-0.886,0.971-1.084,1.587c-0.198,0.615-0.147,1.335,0.251,1.846
						c0.444,0.57,1.231,0.78,1.955,0.731c0.723-0.049,1.411-0.314,2.102-0.534c1.419-0.452,2.897-0.719,4.386-0.793
						c0.997-0.05,2.032-0.02,2.948-0.418c0.916-0.397,1.671-1.391,1.402-2.348c-0.265-0.946-1.338-1.393-2.297-1.627
						C110.714,122.775,107.002,122.611,104.365,125.136z"/>
					<path style="fill:#FFE056;" d="M137.586,123.956c0.486,0.41,0.93,0.899,1.169,1.497c0.239,0.598,0.245,1.32-0.098,1.86
						c-0.384,0.603-1.127,0.873-1.829,0.881c-0.702,0.008-1.386-0.203-2.069-0.369c-1.404-0.34-2.851-0.491-4.292-0.449
						c-0.966,0.028-1.962,0.138-2.876-0.187c-0.914-0.325-1.72-1.256-1.535-2.231c0.182-0.964,1.182-1.493,2.089-1.8
						C131.279,122.097,134.846,121.644,137.586,123.956z"/>
					<path style="fill:#020203;" d="M115.82,140.189c0,2.035-1.65,3.685-3.685,3.685c-2.035,0-3.685-1.649-3.685-3.685
						c0-2.035,1.65-3.685,3.685-3.685C114.171,136.504,115.82,138.154,115.82,140.189z"/>
					<path style="fill:#020203;" d="M135.926,140.189c0,2.035-1.65,3.685-3.685,3.685c-2.035,0-3.685-1.65-3.685-3.685
						c0-2.035,1.65-3.685,3.685-3.685C134.277,136.504,135.926,138.154,135.926,140.189z"/>
					
						<path style="fill:none;stroke:#E76464;stroke-width:1.57;stroke-linecap:round;stroke-linejoin:round;stroke-miterlimit:10;" d="
						M123.128,135.153c1.058,4.269,1.572,8.672,1.526,13.07c-0.003,0.291-0.028,0.624-0.258,0.802
						c-0.161,0.125-0.38,0.137-0.584,0.143c-1.964,0.058-3.931,0.015-5.891-0.127"/>
				</g>
			</g>
			<g>
				<polygon style="fill:#452A15;" points="109.427,248.682 164.642,241.683 218.457,243.757 210.265,278.493 119.537,284.455 				
					"/>
				<polygon style="fill:#744B2A;" points="172.937,306.489 114.352,302.083 109.427,248.682 172.937,250.756 				"/>
				<polygon style="fill:#753E2B;" points="172.937,306.489 216.746,290.677 218.457,243.757 172.937,250.756 				"/>
			</g>
			<g>
				<g>
					<path style="fill:#F5A989;" d="M89.79,211.061c-0.355,25.277,2.101,39.391,8.825,48.462
						c9.598,12.947,35.496,16.168,45.051,16.634c0.802,2.171,1.939,11.484,2.491,14.77c-19.779-0.199-54.228-9.333-63.46-24.348
						c-9.475-15.41-11.994-44.973-8.936-57.093C74.053,209.273,86.568,210.491,89.79,211.061z"/>
					<path style="opacity:0.25;fill:#F5A989;" d="M85.054,261.175c-4.649-8.401-7.875-21.505-8.404-31.127
						c-0.279-5.068,0.414-9.943,1.486-14.751c0.304-1.839,0.703-3.658,1.225-5.442c-3.005-0.28-5.472-0.461-5.6-0.367
						c-3.058,12.12-0.539,41.683,8.936,57.093c5.001,8.134,17.406,14.539,30.868,18.736
						C101.524,279.16,91.568,272.944,85.054,261.175z"/>
				</g>
				<g>
					<path style="fill:#E41718;" d="M83.804,185.078c-2.002-0.899-12.417,4.656-12.727,23.592
						c-0.31,18.935,1.552,40.975,6.519,52.771c0,0,6.208,1.863,11.485-1.552c5.277-3.414,8.071-4.967,8.071-4.967
						s-7.14-18.935-6.829-30.11C90.633,213.636,99.014,191.907,83.804,185.078z"/>
					<path style="opacity:0.78;fill:#A41916;" d="M74.039,226.265c-0.384-3.278-0.704-6.581-0.757-9.882
						c-0.069-4.299,0.255-8.595,0.85-12.852c0.684-4.898,1.741-9.743,3.031-14.526c-3.026,3.582-5.926,9.807-6.088,19.665
						c-0.31,18.935,1.552,40.975,6.519,52.771c0,0,2.494,0.744,5.661,0.424C78.325,250.611,75.465,238.427,74.039,226.265z"/>
				</g>
				<g>
					<path style="fill:#45B597;" d="M162.74,290.821c-0.363-0.803-1.156-1.19-1.917-1.53c-3.178-1.419-6.486-2.549-9.868-3.372
						c3.49,0.444,7.135,0.867,10.531,0.167c1.001-0.206,1.111-1.601,0.154-1.959c-4.053-1.516-8.436-2.152-12.753-1.833
						c4.486-0.56,8.805-2.377,12.355-5.172c0.552-0.435,0.29-1.345-0.411-1.401c-4.809-0.386-9.656,1.207-14.275,2.78
						c-0.193-3.42-0.764-6.819-1.701-10.115c-0.105-0.37-0.25-0.76-0.43-1.131c-0.662-1.358-2.701-1.005-2.953,0.485
						c-0.4,2.356-0.68,4.73-0.861,7.113c-0.299,0.409-7.095-1.25-8.965-0.41c-1.871,0.839-2.09,3.028-2.434,5.797
						c-0.37,2.98-0.59,7.872,2.267,9.789c2.18,1.462,5.087,1.273,7.558,1.795c3.49,0.736,7.118,1.637,10.309,3.273
						c2.864,1.469,5.424,3.557,8.686,4.086c0.806,0.131,1.365-0.771,0.891-1.436c-2.304-3.232-5.701-5.683-9.511-6.809
						c3.747,0.8,7.542,1.375,11.358,1.72c0.698,0.063,1.506,0.082,1.916-0.56C162.927,291.719,162.926,291.233,162.74,290.821z"/>
					<path style="opacity:0.5;fill:#45B597;" d="M144.024,290.03c-2.884-1.487-5.871-2.571-9.021-3.345
						c-1.944-0.478-3.929-0.857-5.889-1.319c0.239,1.898,0.891,3.676,2.362,4.664c2.18,1.462,5.087,1.273,7.558,1.795
						c3.49,0.736,7.118,1.637,10.309,3.273c2.83,1.451,5.365,3.501,8.572,4.061C153.438,295.889,148.964,292.577,144.024,290.03z"/>
				</g>
			</g>
			<polygon style="fill:#915E39;" points="172.937,250.756 165.854,271.34 98.135,268.331 109.427,248.682 			"/>
		</g>
		<g>
			<g>
				<path style="fill:#45B597;" d="M568.568,164.186c-2.717-1.494-3.784,5.288-5.229,7.848c-0.992-5.21-2.635-15.191-5.038-14.951
					c-2.404,0.24-0.152,9.337,0.929,13.244c-2.461-4.326-5.089-13.95-7.365-13.291c-2.276,0.659,1.3,10.226,2.968,15.184
					c-4.528-10.273-7.752-12.7-8.843-12.359c-1.236,0.386,0.186,4.77,4.063,13.378c-2.335-3.87-7.282-8.673-8.526-7.615
					c-1.244,1.058,3.836,7.446,5.952,10.354c5.544,7.615,8.763,13.593,15.416,11.228
					C569.547,184.842,571.285,165.681,568.568,164.186z"/>
				<g>
					<path style="opacity:0.5;fill:#45B597;" d="M551.43,165.105c-2.683-4.471-4.575-5.669-5.364-5.423
						c-1.254,0.392,0.188,4.839,4.122,13.571c-2.368-3.926-7.387-8.798-8.649-7.725c-1.262,1.073,3.891,7.554,6.038,10.503
						c4.171,5.728,7.046,10.535,11.005,11.663C555.318,180.558,553.087,172.905,551.43,165.105z"/>
				</g>
				<g>
					<path style="fill:#E41718;" d="M622.177,185.706c-1.481-1.876-3.524-2.857-5.81-2.802c-5.531,0.135-10.413,4.244-15.054,8.412
						c-6.706,6.022-13.289,12.401-20.049,18.296c-0.835-1.949-1.712-3.87-2.43-5.869c-1.74-4.843-3.393-9.737-4.97-14.688
						c-1.489-4.674-3.383-9.891-7.848-10.137c-2.262-0.125-8.139,2.71-9.845,4.891c-3.571,4.564-0.433,9.514,0.751,14.826
						c0.959,4.301,2.872,8.024,4.763,11.685c2.24,4.338,4.316,8.821,6.534,13.178c1.144,2.247,2.366,5.02,4.079,6.852
						c1.471,2.667,4.696,3.592,7.828,2.514c4.621-1.591,9.042-5.226,13.407-8.051C600.722,220.159,633.057,199.49,622.177,185.706z"
						/>
					<path style="opacity:0.78;fill:#A41916;" d="M613.819,197.152c-2.993,2.921-6.055,5.773-9.101,8.636
						c-3.15,2.961-6.428,5.781-9.798,8.482c-3.429,2.749-6.956,5.372-10.55,7.895c-2.451,1.72-5.484,3.815-8.386,1.869
						c-1.556-1.044-2.664-2.68-3.699-4.217c-1.216-1.805-2.309-3.698-3.266-5.656c-1.915-3.922-3.391-8.068-4.683-12.239
						c-1.255-4.052-2.338-8.14-3.814-12.117c-0.927-2.499-1.896-5.044-2.454-7.667c-0.807,0.561-1.48,1.136-1.899,1.672
						c-3.571,4.564-0.433,9.514,0.751,14.826c0.959,4.301,2.872,8.024,4.763,11.685c2.24,4.338,4.316,8.821,6.534,13.178
						c1.144,2.247,2.366,5.02,4.079,6.852c1.471,2.667,4.696,3.592,7.828,2.514c4.621-1.591,9.042-5.226,13.407-8.051
						c6.936-4.49,37.254-23.874,29.639-37.612C620.26,190.721,617.045,194.004,613.819,197.152z"/>
				</g>
			</g>
			<g>
				<g>
					<g>
						<path style="fill:#7E432B;" d="M646.993,431.883c0,0-12.469,1.649-22.777,1.122c-10.309-0.527-23.57-2.504-23.57-2.504l0,0
							c-0.152-9.688,7.724-12.504,17.665-12.207l19.124-4.23c5.127,0.153,9.347,4.328,9.425,9.324L646.993,431.883z"/>
						<path style="fill:#71B62B;" d="M648.576,432.217c-15.734,2.628-32.391,2.525-49.093-0.534c0.091-0.777,0.185-1.552,0.28-2.328
							c16.385,3.007,32.719,3.113,48.143,0.541C648.128,430.67,648.351,431.443,648.576,432.217z"/>
					</g>
					<path style="fill:#4BB169;" d="M645.741,414.781c-5.057-23.238-6.764-54.643-5.513-81.789
						c0.434-39.638,11.295-67.052,2.661-84.072c-1.724-0.817-22.679-2.658-23.218-4.26c-8.486,30.131-10.093,68.686-10.19,88.977
						c-0.151,31.373,3.069,49.985,10.787,83.093C620.712,425.536,649.943,422.883,645.741,414.781z"/>
				</g>
				<g>
					<g>
						<path style="fill:#7E432B;" d="M681.76,431.746c0,0-12.395,4.061-24.778,5.126c-12.383,1.065-23.663,0.623-23.663,0.623l0,0
							c-1.877-10.66,5.884-14.889,16.364-15.982l19.308-7.395c5.405-0.564,10.571,3.436,11.54,8.934L681.76,431.746z"/>
						<path style="fill:#71B62B;" d="M682.735,432.709c-15.729,5.371-32.8,7.615-50.349,6.341c-0.02-0.939-0.037-1.878-0.053-2.817
							c17.217,1.258,33.959-0.938,49.377-6.198C682.049,430.927,682.391,431.818,682.735,432.709z"/>
					</g>
					<path style="fill:#4BB169;" d="M678.537,415.471c-3.585-23.308-3.996-52.127-4.265-78.677
						c-1.762-38.629,1.732-66.789-7.705-82.496c-1.742-0.623-22.466-0.324-23.085-1.83c-6.687,30.177-1.487,66.942-0.461,86.705
						c1.585,30.555,4.076,49.934,10.554,80.738C654.5,428.437,683.12,422.939,678.537,415.471z"/>
				</g>
			</g>
			<g>
				<g>
					<g>
						<path style="fill:#E41718;" d="M615.791,184.078c11.659-4.269,21.823-4.006,41.374-2.234
							c21.385,1.938,15.382,37.622,15.115,59.839c-0.008,0.706,0.031,1.426,0.101,2.154c-0.846,0.765-1.409,1.884-1.415,3.364
							c-0.03,7.567-2.611,14.694-3.849,22.038c-4.887,0.604-11.808,0.977-20.974,2.444c-19.313,3.091-31.921-3.109-32.05-6.796
							c-0.839-24.004-4.189-57.748-5.308-71.828C609.033,189.441,612.096,186.003,615.791,184.078z"/>
					</g>
					<path style="fill:#F9B215;" d="M675.398,281.012c0.16-0.356,0.323-0.717,0.498-1.106c-1.351-15.305-1.943-20.291-1.905-34.96
						c0.004-1.332-0.392-3.443-0.933-4.66c-1.342-3.019-2.331-1.233-4.573,0.679c-6.413,5.469-12.281,4.311-15.855-7.97
						c-2.757-5.661,3.187-21.627-6.668-20.29c-12.287,1.254-25.181-2.695-36.491-5.438c-2.013-0.488-3.948,1.013-4.092,3.144
						c-0.523,7.736,2.947,20.573,3.707,32.643c0,0-9.394,88.197-9.394,106.732c0,7.144,61.372,9.742,72.088,4.871
						c0,0-2.598-58.125,3.897-73.387L675.398,281.012z"/>
				</g>
				<g>
					<g>
						<path style="fill:#791A15;" d="M606.967,214.593c-0.34-0.049-0.574-0.372-0.511-0.712c0.541-2.937,1.772-15.244,4.735-22.433
							c3.095-7.507,9.695-11.365,10.75-11.944c0.095-0.052,0.198-0.074,0.307-0.069l8.172,0.386
							c0.562,0.027,0.787,0.747,0.341,1.088c-2.981,2.28-9.91,8.3-12.484,16.699c-2.77,9.038-3.629,15.906-3.838,17.933
							c-0.035,0.338-0.339,0.573-0.673,0.525L606.967,214.593z"/>
						<path style="fill:#791A15;" d="M639.409,220.407c-0.366-0.055-0.667-0.428-0.659-0.822c0.067-3.406,0.459-18.059,2.345-26.403
							c1.97-8.714,8.247-13.215,9.257-13.89c0.091-0.061,0.196-0.087,0.311-0.081l9.824,3.588c0.595,0.028,0.351,0.622-0.06,1.02
							c-2.743,2.655-9.564,6.725-10.834,16.47c-1.366,10.485-1.096,18.448-0.969,20.797c0.021,0.392-0.259,0.665-0.618,0.612
							L639.409,220.407z"/>
					</g>
				</g>
			</g>
			<g>
				<g>
					<path style="fill:#45B597;" d="M684.918,309.021c2.714,1.499,3.793-5.281,5.243-7.839c0.983,5.211,2.607,15.195,5.011,14.96
						c2.404-0.236,0.169-9.337-0.904-13.246c2.453,4.331,5.064,13.96,7.341,13.304c2.277-0.655-1.282-10.228-2.941-15.189
						c4.509,10.281,7.729,12.714,8.821,12.375c1.237-0.384-0.177-4.77-4.039-13.385c2.328,3.875,7.266,8.686,8.512,7.631
						c1.246-1.055-3.823-7.453-5.934-10.364c-5.53-7.625-8.738-13.609-15.395-11.256
						C683.977,288.363,682.204,307.521,684.918,309.021z"/>
					<path style="opacity:0.5;fill:#45B597;" d="M701.853,308.27c2.725,4.561,4.652,5.785,5.456,5.536
						c1.279-0.397-0.183-4.931-4.175-13.836c2.406,4.005,7.511,8.978,8.799,7.887c1.288-1.091-3.951-7.704-6.134-10.713
						c-4.239-5.844-7.161-10.747-11.192-11.904C697.92,292.517,700.179,300.319,701.853,308.27z"/>
				</g>
				<g>
					<path style="fill:#E41718;" d="M658.864,213.762c0,0-5.988-16.562-4.904-20.597c1.084-4.035,2.043-7.949,5.366-9.016
						c3.322-1.066,7.578-0.944,12.63,5.203c5.052,6.147,28.311,56.421,28.585,97.522c-0.548,5.754-15.344,7.124-16.44,3.562
						C680.539,261.941,658.864,213.762,658.864,213.762z"/>
					<path style="opacity:0.78;fill:#A41916;" d="M671.956,189.353c-3.491-4.248-6.602-5.617-9.287-5.707
						c0.599,0.693,1.202,1.383,1.778,2.096c1.495,1.849,2.854,3.804,4.084,5.839c2.487,4.112,4.456,8.516,6.142,13.01
						c1.708,4.552,3.124,9.207,4.482,13.874c1.455,4.999,2.954,9.985,4.445,14.974c3.06,10.235,6.094,20.484,8.642,30.861
						c2.136,8.699,3.918,17.497,5.068,26.383c1.791-0.913,3.077-2.186,3.232-3.807C700.267,245.775,677.008,195.501,671.956,189.353
						z"/>
				</g>
			</g>
			<g>
				<g>
					<path style="fill:#F5A989;" d="M637.75,188.026c3.55-0.093,8.461-2.383,8.48-6.807l-2.322-12.809l-16.125,2.923l2.385,13.157
						C630.56,187.302,634.2,188.119,637.75,188.026z"/>
					<path style="opacity:0.54;fill:#F5A989;" d="M643.305,176.4c-1.4,0.981-2.98,1.816-4.695,2.327
						c-2.18,0.649-4.681,0.856-6.838,0.373c-0.772-0.173-1.423-0.413-2.002-0.849c-0.315-0.238-0.606-0.499-0.874-0.776
						l-0.779-4.299c0.055-0.089,0.026-0.186-0.046-0.253l-0.288-1.588l16.125-2.923l1.18,6.51
						C644.559,175.461,643.947,175.95,643.305,176.4z"/>
				</g>
				<g>
					<path style="fill:#F5A989;" d="M605.156,116.36c1.438-5.015,5.591-10.709,10.583-12.442c13.22-5.057,31.268-2.872,39.511,6.499
						c5.251,5.809,6.413,13.788,5.677,21.517c-0.412,9.936-1.149,19.692-5.993,28.383c-5.304,10.493-17.443,16.014-30.292,14.234
						c-12.849-1.781-16.948-8.584-20.403-15.204C598.434,147.225,601.843,125.703,605.156,116.36z"/>
					<path style="opacity:0.25;fill:#F5A989;" d="M645.965,166.932c2.646-3.596,4.887-7.659,6.663-11.754
						c2.187-5.042,3.216-10.489,3.674-15.942c1.034-12.301-1.993-24.405-11.528-32.915c-1.474-1.316-3.047-2.478-4.687-3.519
						c6.372,1.42,11.938,3.948,15.164,7.615c5.251,5.809,6.413,13.788,5.677,21.517c-0.412,9.936-1.149,19.692-5.993,28.383
						c-2.974,5.885-8.099,10.204-14.292,12.551c0.295-0.287,0.585-0.579,0.87-0.869
						C643.083,170.397,644.634,168.741,645.965,166.932z"/>
				</g>
				<g>
					<path style="fill:#F5A989;" d="M655.116,147.257c-0.365,4.557,3.034,8.546,7.591,8.911c4.557,0.365,8.546-3.034,8.911-7.59
						c0.365-4.557-3.034-8.546-7.591-8.911C659.47,139.301,655.481,142.7,655.116,147.257z"/>
					<path style="opacity:0.25;fill:#F5A989;" d="M664.027,139.666c2.798,0.224,5.157,1.815,6.478,4.064
						c-1.087,0.121-2.185,0.409-2.52,0.566c-2.511,1.177-3.86,3.662-5.068,6.02c-0.886,1.73-1.756,3.522-2.356,5.387
						c-3.428-1.233-5.75-4.641-5.445-8.447C655.481,142.7,659.47,139.301,664.027,139.666z"/>
					<g>
						
							<path style="fill:none;stroke:#E76464;stroke-width:1.57;stroke-linecap:round;stroke-linejoin:round;stroke-miterlimit:10;" d="
							M667.109,143.676c-2.661,0.085-5.21,1.758-6.347,4.166"/>
						
							<path style="fill:none;stroke:#E76464;stroke-width:1.57;stroke-linecap:round;stroke-linejoin:round;stroke-miterlimit:10;" d="
							M664.449,144.804c0.658,1.272,1.006,2.727,0.84,4.15c-0.166,1.423-0.875,2.803-2.03,3.65"/>
					</g>
				</g>
				<path style="fill:#76160D;" d="M658.557,150.468c0.555,2.442,1.775,5.002,0.878,7.324c-0.615,1.594-2.257,2.659-3.862,2.506
					c-0.186-0.018-0.402-0.039-0.529,0.106c-0.109,0.124-0.103,0.317-0.088,0.486c0.137,1.574,0.424,3.143,0.358,4.722
					c-0.066,1.579-0.541,3.225-1.665,4.252c-1.508,1.378-3.712,1.299-5.69,1.145c-0.368,2.259-1.343,4.518-3.117,5.804
					c-1.773,1.287-4.435,1.296-5.886-0.391c0.103,2.456-2.426,4.28-4.72,4.168c-2.294-0.112-4.319-1.56-6.191-2.984
					c0.139-0.019,0.124,0.228,0.043,0.351c-1.206,1.846-3.392,2.964-5.471,2.61c-2.078-0.354-3.888-2.272-4.065-4.517
					c-1.192,1.975-3.924,2.506-5.85,1.376c-1.926-1.13-2.977-3.605-2.837-5.952c-1.952,0.883-4.225,1.759-6.105,0.713
					c-1.461-0.813-2.243-2.624-2.373-4.381c-0.148-1.996,0.433-4.044,1.593-5.615c-2.04-0.483-3.733-2.346-4.128-4.542
					c-0.395-2.196,0.53-4.599,2.256-5.859c-1.69-1.397-2.694-3.697-2.608-5.981c0.085-2.284,0.865-5.425,2.654-6.673
					c-0.35,8.588,2.717,18.212,7.766,24.895c1.028,1.36,2.147,2.637,3.28,3.897c0.707,0.786,1.429,1.575,2.294,2.151
					c1.191,0.792,2.588,1.14,3.963,1.434c4.659,0.997,9.406,1.523,14.157,1.569c2.22,0.022,4.468-0.066,6.603-0.717
					c5.816-1.774,9.895-7.441,12.371-13.348c0.749-1.787,1.391-3.622,2.032-5.456c0.763-2.181,1.526-4.364,2.164-6.591
					c0.598-2.086,1.066-4.263,1.971-6.229c0.512-1.112,1.528-3.444,2.213-1.579c0.489,1.333-0.94,3.531-1.261,4.734
					C658.142,146.028,658.068,148.315,658.557,150.468z"/>
				<g>
					<g>
						<path style="fill:#FFFFFF;" d="M632.452,153.808c-0.829-1.664-3.547-0.38-8.208-0.379c-5.096,0.001-6.898-1.472-7.977-0.504
							c-1.079,0.968,2.171,6.779,7.588,6.993C629.273,160.133,633.281,155.472,632.452,153.808z"/>
					</g>
					<path style="fill:#76160D;" d="M641.853,126.391c0.468,0.448,0.886,0.971,1.084,1.587c0.198,0.615,0.147,1.335-0.251,1.846
						c-0.444,0.57-1.231,0.78-1.955,0.731c-0.723-0.049-1.411-0.314-2.102-0.534c-1.419-0.452-2.897-0.719-4.385-0.793
						c-0.997-0.05-2.032-0.02-2.948-0.417c-0.916-0.397-1.671-1.391-1.402-2.348c0.265-0.946,1.338-1.393,2.297-1.627
						C635.505,124.03,639.217,123.866,641.853,126.391z"/>
					<path style="fill:#76160D;" d="M608.632,125.212c-0.486,0.41-0.93,0.899-1.169,1.497c-0.239,0.598-0.245,1.32,0.098,1.86
						c0.384,0.603,1.127,0.873,1.828,0.881c0.701,0.008,1.386-0.203,2.069-0.369c1.404-0.34,2.851-0.491,4.292-0.449
						c0.966,0.028,1.962,0.138,2.875-0.186c0.914-0.325,1.72-1.256,1.535-2.231c-0.182-0.964-1.182-1.493-2.089-1.8
						C614.94,123.352,611.372,122.9,608.632,125.212z"/>
					<path style="fill:#020203;" d="M630.398,141.444c0,2.035,1.65,3.685,3.685,3.685s3.685-1.65,3.685-3.685
						c0-2.035-1.65-3.685-3.685-3.685S630.398,139.409,630.398,141.444z"/>
					<path style="fill:#020203;" d="M610.292,141.444c0,2.035,1.65,3.685,3.685,3.685c2.035,0,3.685-1.65,3.685-3.685
						c0-2.035-1.65-3.685-3.685-3.685C611.942,137.759,610.292,139.409,610.292,141.444z"/>
					
						<path style="fill:none;stroke:#E76464;stroke-width:1.57;stroke-linecap:round;stroke-linejoin:round;stroke-miterlimit:10;" d="
						M623.075,136.389c-1.444,2.741-1.605,5.954-1.735,9.049c-0.042,0.997-0.063,2.072,0.499,2.897
						c0.627,0.919,1.808,1.27,2.91,1.424c1.414,0.198,2.859,0.18,4.268-0.055"/>
				</g>
			</g>
		</g>
		<g>
			<g>
				<g>
					<g>
						<path style="fill:#FFFAC9;" d="M535.878,438.062c0,0-12.082,4.028-24.067,5.084c-11.985,1.056-22.863,0.618-22.863,0.618l0,0
							c-1.511-10.572,6.102-14.766,16.251-15.85l18.851-7.334c5.234-0.559,10.109,3.408,10.888,8.86L535.878,438.062z"/>
						<path style="fill:#E41718;" d="M536.792,439.017c-15.338,5.327-31.883,7.553-48.789,6.289
							c0.008-0.931,0.017-1.863,0.029-2.794c16.587,1.248,32.812-0.93,47.847-6.147C536.18,437.25,536.485,438.134,536.792,439.017z
							"/>
					</g>
					<path style="fill:#3B5B96;" d="M530.922,423.104c-8.681-21.501-15.604-51.055-19.029-76.864
						c-6.308-37.553-0.763-64.549-11.747-79.818c-1.756-0.606-21.728-0.315-22.506-1.779c-2.857,29.336,2.167,65.978,5.514,85.19
						c5.173,29.703,11.348,47.005,24.198,77.587C509.261,435.709,536.238,430.364,530.922,423.104z"/>
				</g>
				<g>
					<g>
						<path style="fill:#FFFAC9;" d="M475.947,442.577c0,0-12.084,1.635-22.022,1.113c-9.938-0.522-22.685-2.484-22.685-2.484l0,0
							c0.128-9.608,7.811-12.4,17.4-12.106l18.583-4.195c4.946,0.152,8.901,4.292,8.835,9.247L475.947,442.577z"/>
						<path style="fill:#E41718;" d="M477.466,442.909c-15.265,2.607-31.343,2.504-47.382-0.53c0.11-0.77,0.222-1.539,0.336-2.309
							c15.734,2.982,31.501,3.087,46.464,0.536C477.077,441.374,477.271,442.142,477.466,442.909z"/>
					</g>
					<path style="fill:#3B5B96;" d="M475.223,425.617c-4.224-23.047-4.982-54.193-3.006-81.114
						c1.542-39.311,12.804-66.499,4.951-83.378c-1.642-0.81-21.82-2.636-22.295-4.225c-9.047,29.882-11.69,68.119-12.359,88.243
						c-1.034,31.114,1.547,49.573,8.061,82.407C450.754,436.283,479.05,433.652,475.223,425.617z"/>
				</g>
			</g>
			<g>
				<g>
					<path style="fill:#F5A989;" d="M401.572,307.132c-0.914-1.828-6.2-4.196-7.796-5.429c18.704-23.7,31.946-48.333,42.291-76.771
						c0.597-1.642,7.037-17.534,8.029-19.579c1.962-4.042,6.86-6.989,10.204-6.35c3.344,0.639,6.138,2.986,6.264,9.176
						c0.126,6.19-5.795,17.805-9.51,26.456c-4.114,9.578-8.988,18.829-14.547,27.638c-5.558,8.808-11.801,17.174-18.656,24.977
						C415.909,289.459,401.337,306.404,401.572,307.132z"/>
					<path style="opacity:0.25;fill:#F5A989;" d="M417.851,287.249c6.856-7.803,13.098-16.169,18.656-24.977
						c5.558-8.808,10.432-18.059,14.547-27.638c3.716-8.651,9.636-20.266,9.51-26.456c-0.126-6.19-2.92-8.537-6.264-9.176
						c-0.374-0.071-0.768-0.091-1.174-0.077c-2.535,12.647-6.72,24.993-12.369,36.631c-0.06,0.181-0.113,0.361-0.188,0.544
						c-10.256,24.923-24.774,47.692-41.402,68.863c1.128,0.74,2.068,1.491,2.406,2.168
						C401.337,306.404,415.909,289.459,417.851,287.249z"/>
					<path style="fill:#F5A989;" d="M382.508,304.429c0.662,2.978,6.246-0.862,9.022-1.558c-3.128,4.258-9.285,12.229-7.571,13.801
						c1.714,1.573,6.843-6.237,8.973-9.673c-1.547,4.718-6.816,13.158-4.88,14.353c1.936,1.196,6.554-7.89,9.066-12.465
						c-4.518,10.253-4.204,14.231-3.259,14.787c1.072,0.63,3.327-3.376,7.06-12.028c-1.299,4.317-1.597,11.154-0.035,11.333
						c1.561,0.179,2.92-7.832,3.663-11.336c1.947-9.18,4.203-15.568-1.771-18.765C396.802,289.681,381.846,301.451,382.508,304.429z
						"/>
					<path style="opacity:0.25;fill:#F5A989;" d="M394.331,316.222c-1.489,4.906-1.146,7.056-0.472,7.452
						c1.072,0.63,3.327-3.376,7.06-12.028c-1.299,4.317-1.597,11.154-0.035,11.333c1.561,0.179,2.92-7.832,3.663-11.336
						c1.444-6.807,3.049-12.075,1.351-15.649C402.879,303.099,398.839,309.816,394.331,316.222z"/>
					<path style="fill:#E41718;" d="M436.06,218.195c0,0,7.133-17.056,10.726-19.05c3.593-1.994,7.872-2.592,10.789-0.946
						c2.916,1.646,5.586,4.777,4.454,12.613c-1.132,7.836-15.182,35.698-21.246,45.732l-16.886-10.934L436.06,218.195z"/>
					<path style="opacity:0.78;fill:#A41916;" d="M442.164,240.227c-2.237,4.242-4.517,8.525-6.96,12.705l5.578,3.612
						c6.064-10.033,20.114-37.896,21.246-45.732c0.937-6.486-0.734-9.74-2.991-11.604
						C456.868,213.811,448.972,227.314,442.164,240.227z"/>
				</g>
				<g>
					<g>
						<path style="fill:#E41718;" d="M492.851,194.602c-18.825-1.757-28.63-2.018-40.007,2.216
							c-3.622,1.909-6.677,5.319-7.019,8.906c0.681,13.964,2.96,47.429,3.09,71.235c0.02,3.657,12.017,9.806,30.75,6.74
							c16.826-2.754,25.853-1.611,28.431-5.517c3.314-5.021-2.694-15.614-2.347-24.235
							C506.635,231.913,513.441,196.523,492.851,194.602z"/>
					</g>
					<path style="opacity:0.78;fill:#A41916;" d="M505.724,253.979c0.655-16.253,4.517-39.76-1.761-51.754
						c0.186,8.924,0.262,17.848-0.921,26.764c-0.982,7.403-3.661,14.037-5.519,21.213c-1.389,5.367-1.503,10.915-2.477,16.346
						c-0.202,1.697-0.413,3.393-0.64,5.085c-0.497,3.706-1.115,7.449-2.98,10.563c9.371-0.964,14.752-1.114,16.644-3.981
						C511.385,273.193,505.377,262.6,505.724,253.979z"/>
					<polygon style="fill:#FFFFFF;" points="477.906,212.039 477.784,216.297 493.825,215.91 493.58,211.265 					"/>
				</g>
				<g>
					<path style="fill:#A41916;" d="M467.346,204.285c-2.395,0.168-7.828-9.199-7.237-10.653c0.591-1.455,9.6-8.89,10.859-7.758
						c1.259,1.131,4.741,6.142,4.209,7.273c-0.344,0.731-4.011,2.213-7.237,4.783C466.171,199.34,468.164,204.228,467.346,204.285z"
						/>
					<g>
						<g>
							<path style="fill:#F5A989;" d="M473.932,200.732c3.43-0.092,8.236-2.363,8.379-6.75l-1.879-12.703l-15.651,2.899l1.93,13.048
								C467.01,200.015,470.502,200.825,473.932,200.732z"/>
							<path style="opacity:0.54;fill:#F5A989;" d="M479.624,189.202c-1.379,0.973-2.929,1.801-4.598,2.307
								c-2.123,0.644-4.544,0.849-6.612,0.37c-0.741-0.171-1.362-0.409-1.909-0.843c-0.298-0.235-0.571-0.495-0.821-0.77
								l-0.631-4.264c0.056-0.088,0.03-0.185-0.037-0.25l-0.233-1.575l15.651-2.899l0.955,6.457
								C480.861,188.271,480.256,188.756,479.624,189.202z"/>
						</g>
						<g>
							<path style="fill:#F5A989;" d="M444.494,129.658c1.53-4.973,5.701-10.62,10.57-12.339
								c12.906-5.016,30.269-2.848,37.962,6.446c4.905,5.761,5.8,13.674,4.871,21.34c-0.679,9.854-1.667,19.529-6.59,28.149
								c-5.418,10.406-17.294,15.882-29.648,14.117c-12.354-1.766-16.119-8.513-19.267-15.079
								C437.13,160.268,441.03,138.923,444.494,129.658z"/>
							<path style="opacity:0.25;fill:#F5A989;" d="M482.46,179.812c2.656-3.566,4.935-7.596,6.766-11.657
								c2.254-5,3.402-10.402,3.998-15.811c1.347-12.2-1.233-24.203-10.197-32.644c-1.386-1.306-2.872-2.458-4.426-3.49
								c6.111,1.408,11.414,3.916,14.424,7.552c4.905,5.761,5.8,13.674,4.871,21.34c-0.679,9.854-1.667,19.529-6.59,28.149
								c-3.038,5.836-8.108,10.12-14.154,12.447c0.293-0.284,0.581-0.574,0.864-0.862
								C479.579,183.249,481.124,181.607,482.46,179.812z"/>
						</g>
						<g>
							<path style="fill:#F5A989;" d="M491.852,160.3c-0.481,4.519,2.687,8.476,7.076,8.837c4.389,0.362,8.337-3.009,8.818-7.528
								c0.481-4.519-2.687-8.476-7.076-8.838C496.281,152.41,492.333,155.78,491.852,160.3z"/>
							<path style="opacity:0.25;fill:#F5A989;" d="M500.671,152.772c2.695,0.222,4.927,1.8,6.139,4.031
								c-1.053,0.12-2.121,0.406-2.449,0.561c-2.458,1.168-3.831,3.632-5.064,5.971c-0.905,1.716-1.796,3.493-2.427,5.343
								c-3.275-1.223-5.42-4.603-5.018-8.378C492.333,155.78,496.281,152.41,500.671,152.772z"/>
							<g>
								
									<path style="fill:none;stroke:#E76464;stroke-width:1.57;stroke-linecap:round;stroke-linejoin:round;stroke-miterlimit:10;" d="
									M503.532,156.749c-2.572,0.084-5.08,1.744-6.246,4.131"/>
								
									<path style="fill:none;stroke:#E76464;stroke-width:1.57;stroke-linecap:round;stroke-linejoin:round;stroke-miterlimit:10;" d="
									M500.933,157.867c0.599,1.262,0.894,2.704,0.694,4.115c-0.2,1.411-0.924,2.779-2.063,3.62"/>
							</g>
						</g>
						<g>
							<g>
								<g>
									<g>
										<g>
											<path style="fill:#020203;" d="M477.575,154.742c-1.492-1.479-3.612-2.367-5.729-2.147
												c-2.087,0.217-3.999,1.286-5.322,2.912c-0.426,0.523-0.512,1.256,0,1.768c0.44,0.44,1.34,0.526,1.768,0
												c0.512-0.629,1.044-1.123,1.706-1.511c0.316-0.186,0.617-0.328,0.876-0.418c0.179-0.062,0.36-0.115,0.544-0.161
												c0.091-0.022,0.183-0.043,0.275-0.061c0.027-0.005,0.303-0.047,0.153-0.029c1.498-0.178,2.882,0.346,3.961,1.415
												C476.951,157.643,478.72,155.876,477.575,154.742L477.575,154.742z"/>
										</g>
									</g>
								</g>
								<g>
									<g>
										<g>
											<path style="fill:#020203;" d="M448.243,155.51c0.539-0.444,1.195-0.782,1.862-0.973
												c0.673-0.193,1.425-0.252,2.025-0.138c0.77,0.146,1.231,0.342,1.889,0.785c0.499,0.336,1.061,0.93,1.412,1.466
												c0.369,0.564,1.107,0.801,1.71,0.448c0.561-0.328,0.82-1.143,0.448-1.71c-1.119-1.71-2.874-3.085-4.928-3.423
												c-2.27-0.374-4.429,0.329-6.187,1.777c-0.521,0.43-0.445,1.323,0,1.768C446.991,156.026,447.72,155.941,448.243,155.51
												L448.243,155.51z"/>
										</g>
									</g>
								</g>
							</g>
							<g>
								<path style="fill:#FFFFFF;" d="M466.672,167.717c-0.448-0.981-2.03-0.224-4.705-0.223c-2.925,0.001-3.935-0.868-4.571-0.297
									c-0.636,0.571,1.132,3.997,4.238,4.124C464.74,171.447,467.119,168.699,466.672,167.717z"/>
							</g>
							<path style="fill:#020203;" d="M479.639,139.606c0.439,0.445,0.828,0.963,1.001,1.574s0.104,1.324-0.295,1.83
								c-0.445,0.565-1.211,0.773-1.908,0.725c-0.697-0.048-1.354-0.311-2.014-0.529c-1.357-0.448-2.777-0.713-4.211-0.787
								c-0.961-0.049-1.961-0.02-2.834-0.414c-0.872-0.394-1.573-1.379-1.287-2.328c0.283-0.938,1.331-1.382,2.264-1.613
								C473.577,137.264,477.165,137.102,479.639,139.606z"/>
							<path style="fill:#020203;" d="M447.599,138.436c-0.481,0.407-0.923,0.892-1.171,1.485c-0.248,0.593-0.274,1.309,0.042,1.844
								c0.354,0.598,1.063,0.866,1.741,0.874c0.677,0.008,1.344-0.202,2.008-0.366c1.365-0.337,2.766-0.487,4.156-0.446
								c0.932,0.028,1.89,0.137,2.782-0.185c0.891-0.322,1.696-1.246,1.546-2.213c-0.148-0.956-1.099-1.481-1.966-1.786
								C453.741,136.592,450.31,136.143,447.599,138.436z"/>
							
								<path style="fill:none;stroke:#E76464;stroke-width:1.57;stroke-linecap:round;stroke-linejoin:round;stroke-miterlimit:10;" d="
								M462.403,155.107c-2.06,0.705-3.643,2.767-3.82,4.975c-0.062,0.774,0.052,1.596,0.515,2.194
								c0.477,0.615,1.262,0.909,2.036,0.955c0.773,0.047,1.548-0.125,2.311-0.296"/>
						</g>
						<g>
							<path style="fill:#1E1E1C;" d="M490.657,157.76c0.922,1.277,3.011,0.512,4.053-0.726c1.042-1.238,1.736-2.886,3.154-3.622
								c0.274-0.142,0.571-0.247,0.812-0.443c0.307-0.249,0.493-0.618,0.669-0.975c1.358-2.757,2.708-5.56,3.357-8.559
								c0.65-2.999,0.538-6.258-0.914-8.879c-0.663-1.197-1.591-2.241-2.068-3.532c-0.501-1.358-0.461-2.873-0.766-4.296
								c-0.619-2.889-2.636-5.243-4.96-6.952c-2.325-1.709-4.771-3.287-7.296-4.673c-1.762-0.968-3.692-1.65-5.606-2.268
								c-1.271-0.41-2.59-0.654-3.926-0.759c-4.664-0.366-9.373-0.865-14.06-0.345c-10.275,1.141-19.708,7.16-27.042,14.813
								c-0.46,0.48-0.936,1.011-1.045,1.668c-0.142,0.852,0.401,1.68,1.114,2.113c0.712,0.432,1.565,0.552,2.393,0.656
								c7.752,0.98,15.68,1.422,23.42-0.102l-1.074,1.38c-0.872,1.12-0.495,2.785,0.779,3.283c3.867,1.512,8.335,1.443,12.544,0.816
								c5.113-0.762,10.162-2.265,15.309-2.403c-1.353,3.032-2.737,6.223-2.546,9.509c0.165,2.83,1.727,5.148,4.152,6.345
								c0.961,0.474,1.327,1.668,0.935,2.711C491.408,154.217,490.941,155.976,490.657,157.76z"/>
							<path style="fill:#1E1E1C;" d="M500.924,119.067c0.915-0.545,2.129,0.124,2.526,1.105c0.397,0.98,0.192,2.118-0.103,3.156
								c-0.565,1.985-1.454,3.896-2.723,5.52c-0.341,0.437-2.194,2.771-2.637,2.141c-0.369-0.525,0.928-3.003,1.088-3.646
								c0.347-1.389,0.547-2.807,0.8-4.213c0.125-0.691,0.257-1.382,0.427-2.064C500.392,120.703,500.606,119.257,500.924,119.067z"
								/>
							<path style="fill:#1E1E1C;" d="M509.154,128.619c0.496-0.959-0.203-2.177-1.174-2.546c-0.971-0.368-2.072-0.115-3.071,0.228
								c-1.912,0.656-3.74,1.641-5.273,3.005c-0.412,0.367-2.615,2.355-1.984,2.786c0.525,0.358,2.89-1.067,3.51-1.256
								c1.34-0.41,2.713-0.669,4.073-0.983c0.669-0.155,1.336-0.317,1.995-0.518C507.581,129.228,508.982,128.953,509.154,128.619z"
								/>
						</g>
					</g>
					<path style="fill:#A41916;" d="M475.173,204.603c-1.814,0.182-1.008-9.543-0.714-11.122c0.294-1.579,7.778-9.808,8.864-8.58
						c1.086,1.228,4.937,8.463,4.653,9.691C487.693,195.82,476.922,204.428,475.173,204.603z"/>
				</g>
				<g>
					<path style="fill:#F5A989;" d="M546.181,306.057c-2-0.274-7.101,2.779-9.049,3.408c-7.215-28.92-18.51-53.832-34.576-78.486
						c-0.927-1.423-9.503-15.748-10.505-17.727c-1.982-3.913-1.305-9.644,1.246-12.061c2.551-2.416,6.11-3.411,11.063-0.019
						c4.953,3.392,10.477,14.869,15.015,22.842c5.026,8.827,9.328,18.1,12.863,27.692c3.535,9.591,6.302,19.501,8.25,29.602
						C541.039,284.168,545.464,305.84,546.181,306.057z"/>
					<path style="opacity:0.25;fill:#F5A989;" d="M540.487,281.306c-1.949-10.101-4.716-20.01-8.25-29.602
						c-3.535-9.591-7.837-18.865-12.863-27.692c-4.539-7.972-10.062-19.45-15.015-22.842c-4.953-3.392-8.512-2.397-11.063,0.019
						c-0.285,0.27-0.543,0.587-0.78,0.932c8.41,9.249,15.572,19.698,21.279,30.963c0.106,0.152,0.215,0.297,0.313,0.464
						c13.352,22.595,22.397,47.513,28.891,73.281c1.274-0.519,2.441-0.875,3.181-0.774
						C545.464,305.84,541.039,284.168,540.487,281.306z"/>
					<path style="fill:#F5A989;" d="M532.378,320.362c2.751,1.132,3.145-5.673,4.297-8.372c1.439,5.002,3.947,14.618,6.235,14.083
						c2.289-0.535-0.723-9.206-2.125-12.916c2.769,3.95,6.19,13.092,8.317,12.16c2.127-0.932-2.202-9.899-4.266-14.57
						c5.309,9.544,8.635,11.53,9.652,11.059c1.153-0.534-0.622-4.67-5.151-12.657c2.605,3.518,7.808,7.627,8.905,6.431
						c1.097-1.196-4.381-6.849-6.686-9.446c-6.039-6.802-9.689-12.283-15.865-9.129C529.515,300.16,529.628,319.229,532.378,320.362
						z"/>
					<path style="opacity:0.25;fill:#F5A989;" d="M548.907,317.204c2.953,4.007,4.856,4.938,5.581,4.601
						c1.153-0.534-0.622-4.67-5.151-12.657c2.605,3.518,7.808,7.627,8.905,6.431c1.097-1.196-4.381-6.849-6.686-9.446
						c-4.478-5.044-7.644-9.353-11.499-9.961C543.805,302.693,546.622,309.842,548.907,317.204z"/>
					<path style="fill:#E41718;" d="M497.245,227.179c0,0-9.067-15.558-8.437-19.668c0.629-4.11,2.779-8.002,5.861-9.494
						c3.082-1.492,7.183-1.94,12.662,3.426c5.479,5.366,18.822,32.773,23.013,43.476l-18.952,7.847L497.245,227.179z"/>
					<path style="opacity:0.78;fill:#A41916;" d="M518.336,234.555c1.972,4.254,3.949,8.567,5.746,12.956l6.261-2.592
						c-4.19-10.703-17.534-38.109-23.013-43.476c-4.535-4.442-8.121-4.892-10.972-4.071
						C506.532,207.422,512.334,221.606,518.336,234.555z"/>
				</g>
			</g>
		</g>
	</g>
</g>
</svg>
